<svg width="16" height="16" fill="none" xmlns="http://www.w3.org/2000/svg"><g clip-path="url(#clip0_157542_1004)"><path fill-rule="evenodd" clip-rule="evenodd" d="M0 2a2 2 0 1 1 4 0 2 2 0 0 1-4 0zm6 0a2 2 0 1 1 4 0 2 2 0 0 1-4 0zm10 0a2 2 0 1 0-4 0 2 2 0 0 0 4 0zM0 8a2 2 0 1 1 4 0 2 2 0 0 1-4 0zm10 0a2 2 0 1 0-4 0 2 2 0 0 0 4 0zm2 0a2 2 0 1 1 4 0 2 2 0 0 1-4 0zm-8 6a2 2 0 1 0-4 0 2 2 0 0 0 4 0zm2 0a2 2 0 1 1 4 0 2 2 0 0 1-4 0zm10 0a2 2 0 1 0-4 0 2 2 0 0 0 4 0z" fill="#fff"/></g><defs><clipPath id="clip0_157542_1004"><path fill="#fff" d="M0 0h16v16H0z"/></clipPath></defs></svg>