<svg width="16" height="16" fill="none" xmlns="http://www.w3.org/2000/svg"><g clip-path="url(#clip0_0_1087)"><path fill-rule="evenodd" clip-rule="evenodd" d="M2 0a2 2 0 1 0 0 4 2 2 0 0 0 0-4zm0 6a2 2 0 1 0 0 4 2 2 0 0 0 0-4zm-2 8a2 2 0 1 1 4 0 2 2 0 0 1-4 0zM7 1a1 1 0 0 0 0 2h8a1 1 0 1 0 0-2H7zM6 8a1 1 0 0 1 1-1h8a1 1 0 1 1 0 2H7a1 1 0 0 1-1-1zm1 5a1 1 0 1 0 0 2h8a1 1 0 1 0 0-2H7z" fill="#242424"/></g><defs><clipPath id="clip0_0_1087"><path fill="#fff" d="M0 0h16v16H0z"/></clipPath></defs></svg>